HIERARCHY
ROOT SpineBase
{
  OFFSET 0.000000 0.000000 0.000000
  CHANNELS 6 Xposition Yposition Zposition Zrotation Xrotation Yrotation
  JOINT SpineMid
  {
    OFFSET 0.000000 28.901415 0.000000
    CHANNELS 3 Zrotation Xrotation Yrotation
    JOINT SpineShoulder
    {
      OFFSET -0.118898 21.515501 -0.667183
      CHANNELS 3 Zrotation Xrotation Yrotation
      JOINT Neck
      {
        OFFSET -0.084403 7.135487 -0.520353
        CHANNELS 3 Zrotation Xrotation Yrotation
        JOINT Head
        {
          OFFSET -2.512216 11.853294 0.850604
          CHANNELS 3 Zrotation Xrotation Yrotation
          End Site
          {
            OFFSET 0 0 0
          }
        }
      }
      JOINT ShoulderLeft
      {
        OFFSET -15.598928 -2.851463 7.595385
        CHANNELS 3 Zrotation Xrotation Yrotation
        JOINT ElbowLeft
        {
          OFFSET -5.072006 -24.833856 4.836289
          CHANNELS 3 Zrotation Xrotation Yrotation
          JOINT WristLeft
          {
            OFFSET -4.773450 -20.425850 -4.506825
            CHANNELS 3 Zrotation Xrotation Yrotation
            JOINT HandLeft
            {
              OFFSET -2.132400 -4.673240 -1.992930
              CHANNELS 3 Zrotation Xrotation Yrotation
              JOINT HandTipLeft
              {
                OFFSET -1.142196 -6.290339 -2.646875
                CHANNELS 3 Zrotation Xrotation Yrotation
                End Site
                {
                  OFFSET 0 0 0
                }
              }
              JOINT ThumbLeft
              {
                OFFSET 2.499463 0.212660 -3.237065
                CHANNELS 3 Zrotation Xrotation Yrotation
                End Site
                {
                  OFFSET 0 0 0
                }
              }
            }
          }
        }
      }
      JOINT ShoulderRight
      {
        OFFSET 14.129874 -1.466646 -7.320441
        CHANNELS 3 Zrotation Xrotation Yrotation
        JOINT ElbowRight
        {
          OFFSET 6.397898 -25.046919 -3.711320
          CHANNELS 3 Zrotation Xrotation Yrotation
          JOINT WristRight
          {
            OFFSET -0.506433 -20.846406 -4.982481
            CHANNELS 3 Zrotation Xrotation Yrotation
            JOINT HandRight
            {
              OFFSET -2.363645 -6.026303 -2.978877
              CHANNELS 3 Zrotation Xrotation Yrotation
              JOINT HandTipRight
              {
                OFFSET -0.733473 -6.042953 -2.404396
                CHANNELS 3 Zrotation Xrotation Yrotation
                End Site
                {
                  OFFSET 0 0 0
                }
              }
              JOINT ThumbRight
              {
                OFFSET -2.807668 0.581342 -1.592742
                CHANNELS 3 Zrotation Xrotation Yrotation
                End Site
                {
                  OFFSET 0 0 0
                }
              }
            }
          }
        }
      }
    }
  }
  JOINT HipLeft
  {
    OFFSET -5.745556 0.589737 -1.408977
    CHANNELS 3 Zrotation Xrotation Yrotation
    JOINT KneeLeft
    {
      OFFSET -5.758078 -28.425650 0.992797
      CHANNELS 3 Zrotation Xrotation Yrotation
      JOINT AnkleLeft
      {
        OFFSET -0.057352 -35.771815 1.600529
        CHANNELS 3 Zrotation Xrotation Yrotation
        JOINT FootLeft
        {
          OFFSET -2.736935 -6.196824 -8.030105
          CHANNELS 3 Zrotation Xrotation Yrotation
          End Site
          {
            OFFSET 0 0 0
          }
        }
      }
    }
  }
  JOINT HipRight
  {
    OFFSET 4.881394 1.046661 -5.164001
    CHANNELS 3 Zrotation Xrotation Yrotation
    JOINT KneeRight
    {
      OFFSET 4.879608 -28.328232 0.653947
      CHANNELS 3 Zrotation Xrotation Yrotation
      JOINT AnkleRight
      {
        OFFSET 2.521875 -40.241692 7.281225
        CHANNELS 3 Zrotation Xrotation Yrotation
        JOINT FootRight
        {
          OFFSET -1.829458 -7.953992 -4.966698
          CHANNELS 3 Zrotation Xrotation Yrotation
          End Site
          {
            OFFSET 0 0 0
          }
        }
      }
    }
  }
}
MOTION
Frames: 13
Frame Time: 0.033333
17.246281 74.376678 357.256944 12.769344 0.323675 27.023115 -0.322741 0.120364 -26.667281 -0.434874 0.009114 0.490273 16.673272 4.833039 -2.933829 0.000000 0.000000 0.000000 -0.788385 -16.889565 6.376338 3.393507 20.343598 -12.052529 -16.200667 33.641181 -10.705330 25.309576 -42.570897 26.166032 0.000000 0.000000 0.000000 0.000000 0.000000 0.000000 12.997229 -3.785797 -4.450116 -22.769499 6.789041 3.767137 -7.850739 -7.138962 3.351447 4.308364 -13.685376 -1.428110 0.000000 0.000000 0.000000 0.000000 0.000000 0.000000 -3.837250 0.952987 -26.503373 6.974819 -1.403108 0.440286 -26.145257 19.289961 5.835190 0.000000 0.000000 0.000000 9.908951 13.887302 -26.855656 27.596978 -39.898964 21.123382 -19.012072 38.082262 -17.149740 0.000000 0.000000 0.000000
16.366050 76.562796 356.958026 12.630038 0.377693 26.310027 -0.316390 0.115919 -25.964135 -0.429525 0.014449 0.484785 15.294303 4.123801 -2.724710 0.000000 0.000000 0.000000 -0.631336 -17.285018 6.499077 4.398853 19.862686 -12.483542 -16.661901 33.965553 -10.861510 27.515394 -40.046072 26.066648 0.000000 0.000000 0.000000 0.000000 0.000000 0.000000 14.473720 -5.106817 -4.590030 -24.131621 8.259305 4.396355 -7.346777 -9.513133 3.777530 1.005427 -7.855280 -1.288725 0.000000 0.000000 0.000000 0.000000 0.000000 0.000000 -1.631821 -1.097886 -25.487217 3.349737 -0.404571 -0.007212 -25.200197 19.141755 5.704980 0.000000 0.000000 0.000000 9.682502 14.707786 -26.135255 27.958225 -42.289067 21.778232 -14.694510 35.976193 -19.817010 0.000000 0.000000 0.000000
15.595813 78.748009 356.805054 12.557702 0.347830 25.909324 -0.313491 0.108311 -25.561769 -0.427461 0.014379 0.482040 14.664280 3.438679 -2.647113 0.000000 0.000000 0.000000 0.826618 -15.745686 6.534860 3.651639 19.324417 -12.771286 -20.026598 33.422905 -9.254464 28.840273 -35.363421 23.579387 0.000000 0.000000 0.000000 0.000000 0.000000 0.000000 14.218977 -5.656016 -4.584673 -24.619947 9.118983 4.831704 -6.851936 -10.545113 3.939189 0.695988 -8.633627 -1.361936 0.000000 0.000000 0.000000 0.000000 0.000000 0.000000 -0.098136 -2.194452 -24.891510 0.729922 0.263915 -0.239536 -24.727975 18.505585 6.222191 0.000000 0.000000 0.000000 8.554910 15.601546 -25.662933 31.047422 -44.131230 23.695117 -10.975914 31.633328 -22.704221 0.000000 0.000000 0.000000
14.807904 80.184452 356.608725 12.495998 0.279374 24.991205 -0.317069 0.091076 -24.636813 -0.427047 0.006269 0.480111 14.122239 2.997945 -2.607422 0.000000 0.000000 0.000000 2.005608 -14.282146 6.478288 3.158387 17.431753 -12.603788 -25.254440 29.121596 -4.953998 29.726699 -30.853934 18.332481 0.000000 0.000000 0.000000 0.000000 0.000000 0.000000 13.875218 -5.426886 -4.570340 -24.973753 8.931448 4.980516 -4.603440 -10.241726 3.206389 0.306900 -9.280747 -0.812749 0.000000 0.000000 0.000000 0.000000 0.000000 0.000000 0.862045 -3.006694 -23.771588 -0.909860 1.074694 -0.459359 -24.242739 18.051170 6.245759 0.000000 0.000000 0.000000 7.234777 16.593826 -24.635418 37.207304 -46.302304 27.968573 -12.188066 24.647628 -20.672228 0.000000 0.000000 0.000000
13.998343 80.496882 356.455390 12.439966 0.226432 24.612145 -0.328272 0.075417 -24.252217 -0.431436 -0.003823 0.477953 13.750947 2.782847 -2.585316 0.000000 0.000000 0.000000 3.222099 -13.020438 6.467752 3.225162 16.684915 -13.112557 -36.291353 18.175975 3.159229 34.409494 -20.714615 7.039424 0.000000 0.000000 0.000000 0.000000 0.000000 0.000000 13.433030 -4.670439 -4.520895 -25.424811 8.492341 4.946740 -2.758818 -10.983834 2.946504 0.354275 -10.728068 -0.708612 0.000000 0.000000 0.000000 0.000000 0.000000 0.000000 1.624504 -3.582761 -23.242809 -2.277129 1.643178 -0.600691 -25.543063 18.424180 8.099863 0.000000 0.000000 0.000000 5.841153 17.633132 -24.116132 43.412795 -46.843228 31.821276 -17.988185 27.307628 -16.538451 0.000000 0.000000 0.000000
13.304475 79.566120 356.337335 12.379601 0.106922 24.438410 -0.319766 0.077718 -24.068132 -0.430398 -0.000197 0.475092 14.340501 3.210661 -2.670944 0.000000 0.000000 0.000000 4.210231 -12.231279 6.527737 2.029087 16.619083 -13.032147 -24.244804 4.677574 2.316218 23.672295 -12.358043 -0.577830 0.000000 0.000000 0.000000 0.000000 0.000000 0.000000 13.130442 -3.794463 -4.486118 -24.562604 8.189875 4.405242 -1.477689 -11.936199 2.729108 1.913695 -10.716839 -1.153728 0.000000 0.000000 0.000000 0.000000 0.000000 0.000000 1.486096 -3.403128 -23.083948 -1.470029 1.516249 -0.581289 -26.559931 17.955064 8.880746 0.000000 0.000000 0.000000 4.602293 18.659363 -23.794977 50.874264 -46.906805 36.630858 -20.921415 23.235427 -14.438727 0.000000 0.000000 0.000000
12.490172 77.910966 356.158196 12.303141 -0.034889 24.752692 -0.347664 0.084113 -24.369945 -0.457366 -0.016205 0.469723 14.543441 3.609860 -2.727165 0.000000 0.000000 0.000000 4.428904 -11.385017 6.305656 1.812755 15.326560 -12.570568 -16.444549 2.531566 0.537428 16.073840 -9.278804 -0.378615 0.000000 0.000000 0.000000 0.000000 0.000000 0.000000 12.601334 -2.900092 -4.424055 -23.560922 7.961662 3.905072 -1.996456 -10.710876 2.239228 3.084755 -9.171884 -1.330230 0.000000 0.000000 0.000000 0.000000 0.000000 0.000000 1.027984 -2.749713 -23.540139 0.133208 0.702804 -0.399013 -22.480686 16.855559 3.703522 0.000000 0.000000 0.000000 3.949132 18.664083 -24.028784 55.895431 -46.167325 39.666534 -25.529047 25.871282 -12.111862 0.000000 0.000000 0.000000
11.748171 75.679682 356.006348 12.269690 -0.223360 25.457288 -0.358704 0.076125 -25.054392 -0.459225 -0.035813 0.469097 14.208502 4.412329 -2.767908 0.000000 0.000000 0.000000 4.415361 -10.571692 6.054060 0.925615 14.692835 -11.916108 -8.694513 0.956707 -1.384500 9.076176 -9.361423 1.560604 0.000000 0.000000 0.000000 0.000000 0.000000 0.000000 12.114647 -1.978175 -4.391732 -22.106373 7.682110 3.266065 -1.587301 -10.373098 1.749937 2.820990 -6.597870 -1.181006 0.000000 0.000000 0.000000 0.000000 0.000000 0.000000 0.259897 -1.680966 -24.462819 2.203891 -0.222776 -0.125303 -18.872236 15.422135 -1.134385 0.000000 0.000000 0.000000 4.195382 18.141191 -24.777890 58.354822 -45.423813 41.243684 -31.632231 30.437907 -8.068773 0.000000 0.000000 0.000000
11.031375 73.448825 355.968866 12.223419 -0.435543 26.397971 -0.337285 0.035756 -25.970266 -0.435948 -0.058670 0.471699 14.041565 4.977246 -2.842986 0.000000 0.000000 0.000000 4.286261 -8.893341 5.495408 -0.610307 13.228982 -10.722318 -3.188982 1.224651 -3.323263 3.755524 -11.830852 4.432841 0.000000 0.000000 0.000000 0.000000 0.000000 0.000000 11.354324 -1.113901 -4.341937 -19.914227 7.207098 2.520076 -2.601445 -9.606950 1.604982 2.868391 -4.094197 -1.300594 0.000000 0.000000 0.000000 0.000000 0.000000 0.000000 -0.501294 -0.022132 -25.760276 4.534658 -1.564761 0.367686 -19.568550 15.773424 -1.327317 0.000000 0.000000 0.000000 4.114460 18.184980 -25.718598 59.139521 -44.779823 41.242245 -29.282412 30.771702 -11.700045 0.000000 0.000000 0.000000
10.456948 71.198651 356.033752 12.257650 -0.800008 27.665211 -0.303912 -0.032468 -27.191572 -0.414702 -0.075994 0.477560 13.474193 5.891188 -2.940120 0.000000 0.000000 0.000000 3.723655 -7.131567 4.847324 -1.452862 11.855027 -9.749993 -1.868650 3.321616 -4.759546 1.441842 -15.840249 7.055114 0.000000 0.000000 0.000000 0.000000 0.000000 0.000000 10.809967 -0.349148 -4.391242 -17.916524 6.653679 1.908698 -3.584718 -9.884585 1.966189 4.499373 -2.328445 -2.387060 0.000000 0.000000 0.000000 0.000000 0.000000 0.000000 -1.384378 2.335834 -27.463689 7.627211 -3.279917 1.118566 -17.463141 13.735290 -4.658890 0.000000 0.000000 0.000000 5.016631 18.962866 -27.114257 57.072187 -44.686431 39.805303 -26.567902 30.350791 -14.277733 0.000000 0.000000 0.000000
9.967497 69.623000 356.010398 12.326740 -1.038955 28.637561 -0.273068 -0.082753 -28.131676 -0.398730 -0.078719 0.483201 13.149731 6.358824 -3.012421 0.000000 0.000000 0.000000 2.587272 -6.471101 4.414136 -1.699137 11.843318 -9.137031 -4.256690 6.266248 -5.026952 3.354043 -20.747117 8.664230 0.000000 0.000000 0.000000 0.000000 0.000000 0.000000 10.596043 -0.189194 -4.470862 -16.834053 6.282786 1.680270 -3.786422 -10.875708 2.530044 4.778149 -1.389091 -3.091093 0.000000 0.000000 0.000000 0.000000 0.000000 0.000000 -1.829773 4.014848 -28.735489 9.922403 -4.915256 1.819984 -11.658629 10.268369 -12.378109 0.000000 0.000000 0.000000 5.902917 19.900560 -28.225669 53.044013 -44.574648 36.937036 -24.691610 27.881360 -14.283371 0.000000 0.000000 0.000000
9.708961 69.243377 355.909934 12.699412 -1.275902 28.901817 -0.254696 -0.114668 -28.352057 -0.385937 -0.076760 0.500280 11.734395 6.698699 -2.979917 0.000000 0.000000 0.000000 1.223825 -5.891639 4.019168 -1.835799 11.828293 -8.596980 -5.750241 10.678776 -6.263480 5.560604 -25.231322 10.814565 0.000000 0.000000 0.000000 0.000000 0.000000 0.000000 10.416898 -0.734824 -4.649938 -15.988207 5.877232 1.738855 -4.110678 -10.431912 2.777572 5.366939 0.942842 -3.935470 0.000000 0.000000 0.000000 0.000000 0.000000 0.000000 -2.107009 4.804403 -29.072756 10.250974 -5.473757 2.023393 -8.055392 7.905220 -16.626327 0.000000 0.000000 0.000000 6.481520 21.295751 -28.646274 46.619743 -44.727350 32.453040 -21.760419 25.399688 -14.037922 0.000000 0.000000 0.000000
9.496364 70.086149 356.019898 13.140808 -1.712845 27.818184 -0.235143 -0.087796 -27.204184 -0.395569 -0.047298 0.514356 10.624262 6.639479 -3.018897 0.000000 0.000000 0.000000 0.887831 -5.073197 3.832408 -2.336327 12.532378 -8.679959 -11.007986 15.359858 -5.956015 12.078078 -31.096059 13.247427 0.000000 0.000000 0.000000 0.000000 0.000000 0.000000 10.643594 -1.525270 -4.939218 -16.082252 5.433199 2.143945 -4.560798 -10.147040 3.360557 6.343912 -0.367521 -4.575984 0.000000 0.000000 0.000000 0.000000 0.000000 0.000000 -1.619508 4.793560 -27.930298 8.704347 -5.450449 1.862571 -7.318335 8.107453 -16.862988 0.000000 0.000000 0.000000 6.464908 23.264116 -27.650483 41.214781 -45.100414 28.711596 -20.925413 23.231226 -11.570515 0.000000 0.000000 0.000000
